<?xml version="1.0" encoding="UTF-8" standalone="no"?> <!-- Created with Vectornator for iOS (http://vectornator.io/) --><!DOCTYPE svg PUBLIC "-//W3C//DTD SVG 1.1//EN" "http://www.w3.org/Graphics/SVG/1.1/DTD/svg11.dtd">
<svg version="1.1" xml:space="preserve" xmlns:vectornator="http://vectornator.io" height="100%" xmlns:xlink="http://www.w3.org/1999/xlink" viewBox="0 0 419.58 297.675" xmlns="http://www.w3.org/2000/svg" width="100%" style="fill-rule:nonzero;clip-rule:evenodd;stroke-linecap:round;stroke-linejoin:round;">
<metadata>
<vectornator:setting key="WDUnits" value="Millimeters"/>
<vectornator:setting key="VNPencilOnly" value="false"/>
<vectornator:setting key="WDSnapToEdges" value="false"/>
<vectornator:setting key="WDSnapToPoints" value="false"/>
<vectornator:setting key="WDRulersVisible" value="true"/>
<vectornator:setting key="IsTimeLapseWatermarkDisabled" value="false"/>
<vectornator:setting value="true" key="WDGuidesVisible"/>
<vectornator:setting value="false" key="WDIsolateActiveLayer"/>
<vectornator:setting key="UndoHistoryDisabled" value="false"/>
<vectornator:setting value="true" key="VNDimensionsVisible"/>
<vectornator:setting value="false" key="WDOutlineMode"/>
<vectornator:setting value="false" key="WDCMYKEnabledKey"/>
<vectornator:setting key="VNSnapToGuides" value="true"/>
<vectornator:setting key="WDDynamicGuides" value="true"/>
<vectornator:setting value="false" key="WDDisplayWhiteBackground"/>
<vectornator:setting value="false" key="WDSnapToGrid"/>
</metadata>
<defs/>
<g vectornator:layerName="Layer 1" id="Layer 1">
<path opacity="1" d="M37.4105+20.4667L382.17+20.4667C402.831+20.4667+419.58+37.2159+419.58+57.8772L419.58+243.115C419.58+263.777+402.831+280.526+382.17+280.526L37.4105+280.526C16.7492+280.526-2.4869e-14+263.777-2.4869e-14+243.115L-2.4869e-14+57.8772C-2.4869e-14+37.2159+16.7492+20.4667+37.4105+20.4667Z" fill="#ffffff"/>
</g>
<g vectornator:layerName="3" id="3">
<g opacity="1">
<path opacity="1" stroke-linecap="round" stroke-width="6.06699" stroke-linejoin="round" stroke="#d32828" fill="none" d="M289.733+79.7838L361.649+79.7838"/>
<path stroke="#d32828" d="M287.135+100.308L373.718+100.308" stroke-width="6.06699" stroke-linecap="round" opacity="1" fill="none" stroke-linejoin="round"/>
<path stroke-width="6.06699" d="M294.726+119.922L370.327+120.16" stroke-linecap="round" opacity="1" stroke-linejoin="round" fill="none" stroke="#d32828"/>
<path fill="none" d="M297.147+140.022L361.649+140.297" stroke-linejoin="round" stroke="#d32828" stroke-linecap="round" opacity="1" stroke-width="6.06699"/>
<path stroke-width="6.06699" stroke-linejoin="round" d="M287.135+160.073L351.973+160.155" stroke="#d32828" stroke-linecap="round" opacity="1" fill="none"/>
<path stroke="#d32828" stroke-linecap="round" fill="none" stroke-linejoin="round" stroke-width="6.06699" opacity="1" d="M282.299+179.787L349.638+179.787"/>
<path stroke="#d32828" stroke-width="6.06699" stroke-linecap="round" d="M361.649+200.296L285.019+200.502" stroke-linejoin="round" opacity="1" fill="none"/>
<path stroke-linecap="round" stroke-linejoin="round" d="M297.147+219.371L366.643+219.371" fill="none" opacity="1" stroke="#d32828" stroke-width="6.06699"/>
</g>
<g opacity="0">
<path d="M316.49+61.2153C311.324+62.3632+305.963+63.6224+301.322+66.3528C297.424+68.6453+293.114+71.2521+290.313+74.9154C284.608+82.3755+283.613+93.6595+286.643+102.316C288.594+107.89+291.698+113.171+293.738+118.707C294.342+120.348+294.218+122.154+294.472+123.844C294.951+127.042+295.939+130.103+295.939+133.386C295.939+142.93+290.583+151.532+286.643+159.807C284.298+164.732+283.132+170.843+282.239+176.198C280.84+184.596+280.556+194.555+283.952+202.62C285.341+205.919+287.913+208.656+290.068+211.427C292.593+214.674+294.601+218.365+297.652+221.213C307.433+230.342+317.514+236.304+331.168+237.604C336.967+238.156+342.744+236.545+348.293+235.158C356.205+233.18+363.897+230.956+367.62+222.681C369.407+218.71+369.196+212.147+367.131+208.247C365.26+204.713+361.583+201.937+359.302+198.706C357.747+196.503+358.355+196.33+357.345+194.057C354.322+187.256+351.088+181.407+350.74+173.752C350.119+160.089+357.094+146.764+363.706+135.343C366.242+130.962+369.116+126.701+370.801+121.887C373.52+114.119+375.368+104.014+373.247+95.9549C372.616+93.5547+371.3+91.4597+370.556+89.1048C368.72+83.2896+365.1+77.9398+360.526+73.6922C355.718+69.2283+350.272+67.0371+343.89+65.6189" fill="#d32828" opacity="0"/>
<path fill="none" opacity="1" d="M316.5+61.2188C313.961+61.7941+311.404+62.3929+308.906+63.1562C311.398+62.3859+313.947+61.7973+316.5+61.2188ZM307.812+63.5938C306.003+64.1944+304.195+64.7951+302.5+65.6875C302.195+65.8479+301.899+66.0527+301.594+66.2188C303.574+65.1091+305.685+64.3054+307.812+63.5938ZM301.594+66.2188C301.503+66.2693+301.402+66.2921+301.312+66.3438C300.82+66.6266+300.338+66.9579+299.844+67.25C300.43+66.9068+301.004+66.5398+301.594+66.2188ZM299.844+67.25C298.822+67.8485+297.825+68.454+296.844+69.125C297.829+68.466+298.831+67.8487+299.844+67.25ZM296.844+69.125C296.071+69.6415+295.387+70.2429+294.656+70.8125C295.378+70.241+296.078+69.6488+296.844+69.125ZM294.656+70.8125C293.998+71.3335+293.263+71.7806+292.656+72.3438C292.254+72.7169+291.932+73.1622+291.562+73.5625C292.498+72.5549+293.565+71.6629+294.656+70.8125ZM291.562+73.5625C291.402+73.735+291.185+73.8534+291.031+74.0312C290.879+74.2073+290.771+74.4125+290.625+74.5938C290.916+74.2349+291.248+73.9032+291.562+73.5625ZM290.625+74.5938C290.172+75.1536+289.771+75.744+289.375+76.3438C289.769+75.7381+290.172+75.1555+290.625+74.5938ZM289.375+76.3438C289.043+76.8537+288.697+77.3402+288.406+77.875C288.701+77.344+289.04+76.8498+289.375+76.3438ZM288.406+77.875C287.929+78.7349+287.562+79.6481+287.188+80.5625C287.555+79.6532+287.937+78.7387+288.406+77.875ZM359.906+73.1562C361.827+74.848+363.574+76.7568+365.125+78.8125C363.576+76.759+361.827+74.8476+359.906+73.1562ZM365.125+78.8125C365.753+79.6456+366.195+80.5867+366.75+81.4688C366.195+80.5862+365.754+79.6456+365.125+78.8125ZM366.75+81.4688C367.613+82.8406+368.493+84.2148+369.156+85.6875C369.037+85.411+368.976+85.117+368.844+84.8438C368.268+83.6504+367.458+82.5938+366.75+81.4688ZM369.156+85.6875C369.807+87.1965+370.373+88.7125+370.969+90.25C370.451+88.9147+370.064+87.5694+369.5+86.25C369.414+86.0486+369.246+85.8873+369.156+85.6875ZM370.969+90.25C371.593+91.8606+372.385+93.4239+372.938+95.0625C372.907+94.9712+372.907+94.8719+372.875+94.7812C372.327+93.2395+371.559+91.7743+370.969+90.25ZM372.938+95.0625C373.171+95.7594+373.224+96.4967+373.375+97.2188C373.245+96.606+373.248+95.9704+373.062+95.375C373.029+95.268+372.973+95.1686+372.938+95.0625ZM373.375+97.2188C373.62+98.3737+373.903+99.5153+374+100.688C373.984+100.501+374.019+100.312+374+100.125C373.898+99.1401+373.579+98.1943+373.375+97.2188ZM374+100.688C374.159+102.535+374.112+104.397+374+106.25C374.101+104.57+374.209+102.898+374.094+101.219C374.081+101.04+374.015+100.867+374+100.688ZM374+106.25C373.974+106.688+374.008+107.125+373.969+107.562C374.008+107.125+373.973+106.688+374+106.25ZM373.969+107.562C373.755+109.931+373.391+112.286+372.875+114.594C373.391+112.285+373.756+109.927+373.969+107.562ZM286.875+81.2188C286.319+82.6888+285.902+84.1947+285.594+85.75C285.908+84.2054+286.326+82.6839+286.875+81.2188ZM285.594+85.75C285.176+87.8009+285.006+89.8989+285+92C284.997+89.9059+285.186+87.8045+285.594+85.75ZM285+92C285.001+92.6674+285.053+93.3057+285.094+93.9688C285.055+93.3127+284.998+92.6577+285+92ZM285.094+93.9688C285.196+95.7181+285.456+97.4286+285.844+99.125C285.465+97.4521+285.202+95.7231+285.094+93.9688ZM285.844+99.125C285.915+99.4386+285.889+99.7846+285.969+100.094C286.008+100.244+286.084+100.382+286.125+100.531C285.997+100.071+285.951+99.5924+285.844+99.125ZM286.125+100.531C286.188+100.758+286.213+100.994+286.281+101.219C286.792+102.896+287.565+104.481+288.25+106.094C287.456+104.273+286.656+102.443+286.125+100.531ZM288.25+106.094C288.495+106.656+288.654+107.256+288.906+107.812C289.06+108.153+289.188+108.505+289.344+108.844C288.93+107.946+288.636+107.002+288.25+106.094ZM289.344+108.844C290.854+112.117+292.466+115.364+293.75+118.719C292.46+115.349+290.851+112.116+289.344+108.844ZM293.75+118.719C294.271+120.08+294.235+121.573+294.375+123C294.386+123.115+294.425+123.206+294.438+123.312C294.268+121.77+294.311+120.185+293.75+118.719ZM294.438+123.312C294.457+123.488+294.442+123.67+294.469+123.844C294.546+124.347+294.653+124.844+294.75+125.344C294.607+124.581+294.516+124.003+294.438+123.312ZM295.656+130.562C295.887+132.25+296.007+133.941+295.844+135.75C295.964+134.423+295.987+133.079+295.875+131.75C295.841+131.348+295.711+130.961+295.656+130.562ZM284.656+165.062C283.686+168.266+283.039+171.549+282.469+174.844C282.414+175.162+282.396+175.493+282.344+175.812C282.938+172.191+283.592+168.577+284.656+165.062ZM282.344+175.812C282.323+175.94+282.271+176.06+282.25+176.188C282.144+176.843+282.093+177.526+282+178.188C282.11+177.395+282.215+176.598+282.344+175.812ZM282+178.188C281.845+179.301+281.671+180.408+281.562+181.531C281.671+180.412+281.845+179.294+282+178.188ZM281.562+181.531C281.453+182.655+281.427+183.777+281.375+184.906C281.427+183.778+281.454+182.655+281.562+181.531ZM281.375+184.906C281.334+185.784+281.282+186.654+281.281+187.531C281.281+186.653+281.335+185.784+281.375+184.906ZM281.281+187.531C281.281+189.141+281.372+190.747+281.531+192.344C281.374+190.749+281.28+189.139+281.281+187.531ZM351.938+180.906C352.465+182.769+353.157+184.561+353.906+186.344C353.158+184.562+352.465+182.769+351.938+180.906ZM353.906+186.344C354.523+187.812+355.18+189.272+355.844+190.719C355.184+189.275+354.522+187.81+353.906+186.344ZM281.594+193.5C281.851+195.535+282.259+197.528+282.844+199.5C282.257+197.523+281.85+195.533+281.594+193.5ZM282.844+199.5C283.325+201.122+283.927+202.737+284.75+204.219C284.834+204.371+284.943+204.507+285.031+204.656C284.086+203.039+283.377+201.296+282.844+199.5ZM285.031+204.656C285.095+204.765+285.121+204.892+285.188+205C285.414+205.368+285.724+205.676+285.969+206.031C285.654+205.574+285.314+205.135+285.031+204.656ZM285.969+206.031C287.249+207.893+288.673+209.662+290.062+211.438C288.674+209.653+287.251+207.893+285.969+206.031ZM357.75+195.031C358.048+195.874+358.139+196.766+358.562+197.562C358.65+197.726+358.81+197.841+358.906+198C358.349+197.055+358.119+196.075+357.75+195.031ZM358.906+198C358.941+198.059+358.931+198.129+358.969+198.188C359.631+199.215+360.402+200.148+361.219+201.062C360.369+200.121+359.57+199.095+358.906+198ZM363.938+204C364.345+204.446+364.68+204.943+365.062+205.406C364.681+204.942+364.343+204.447+363.938+204ZM365.062+205.406C365.605+206.066+366.105+206.745+366.562+207.469C366.112+206.749+365.605+206.063+365.062+205.406ZM366.562+207.469C367.05+208.246+367.46+209.077+367.781+209.969C367.576+209.384+367.418+208.786+367.125+208.25C366.969+207.965+366.735+207.742+366.562+207.469ZM367.781+209.969C367.856+210.183+367.967+210.375+368.031+210.594C368.013+210.534+368.018+210.465+368+210.406C367.95+210.245+367.838+210.126+367.781+209.969ZM368.031+210.594C368.463+212.031+368.667+213.566+368.75+215.125C368.734+214.788+368.782+214.467+368.75+214.125C368.64+212.955+368.375+211.756+368.031+210.594ZM368.75+215.125C368.781+215.8+368.755+216.469+368.719+217.125C368.755+216.441+368.786+215.809+368.75+215.125ZM368.719+217.125C368.664+218.172+368.483+219.185+368.25+220.188C368.484+219.19+368.661+218.18+368.719+217.125ZM368.25+220.188C368.082+220.904+367.98+221.631+367.719+222.312C367.81+222.08+367.953+221.86+368.031+221.625C368.182+221.173+368.141+220.658+368.25+220.188ZM296.188+219.719C297.384+221.051+298.746+222.264+300.094+223.438C300.262+223.584+300.456+223.699+300.625+223.844C299.09+222.546+297.527+221.212+296.188+219.719ZM300.625+223.844C300.872+224.052+301.097+224.293+301.344+224.5C302.569+225.528+303.961+226.334+305.25+227.281C303.702+226.144+302.083+225.094+300.625+223.844ZM305.25+227.281C306.497+228.198+307.656+229.242+308.969+230.062C309.209+230.213+309.475+230.322+309.719+230.469C308.151+229.52+306.726+228.366+305.25+227.281ZM309.719+230.469C309.917+230.589+310.082+230.758+310.281+230.875C311.164+231.394+312.113+231.811+313.031+232.281C311.902+231.704+310.797+231.119+309.719+230.469ZM313.031+232.281C313.641+232.593+314.221+232.93+314.844+233.219C314.223+232.931+313.638+232.592+313.031+232.281ZM314.844+233.219C316.129+233.814+317.446+234.323+318.781+234.812C317.449+234.324+316.129+233.814+314.844+233.219ZM318.781+234.812C319.377+235.031+319.959+235.273+320.562+235.469C319.959+235.273+319.376+235.031+318.781+234.812ZM320.562+235.469C321.765+235.858+322.991+236.144+324.219+236.438C322.993+236.145+321.763+235.858+320.562+235.469ZM324.219+236.438C325.033+236.632+325.834+236.882+326.656+237.031C325.836+236.882+325.032+236.632+324.219+236.438ZM367.562+222.625C367.159+223.613+366.638+224.567+366.031+225.469C366.646+224.566+367.15+223.611+367.562+222.625ZM366.031+225.469C365.805+225.802+365.563+226.12+365.312+226.438C365.564+226.118+365.808+225.801+366.031+225.469ZM365.312+226.438C364.627+227.307+363.865+228.142+362.969+228.906C363.833+228.16+364.604+227.337+365.312+226.438ZM362.625+229.219C361.126+230.43+359.502+231.292+357.75+232.094C358.34+231.819+358.947+231.57+359.531+231.281C360.626+230.741+361.65+230.016+362.625+229.219ZM357.75+232.094C356.579+232.63+355.369+233.032+354.156+233.438C354.764+233.24+355.406+233.137+356+232.906C356.598+232.673+357.168+232.365+357.75+232.094ZM354.156+233.438C352.217+234.069+350.248+234.653+348.281+235.156C350.264+234.648+352.224+234.084+354.156+233.438Z"/>
</g>
<path opacity="1" stroke-linecap="round" stroke="#d32828" d="M327.717+60.6235C321.071+59.5574+315.323+59.9253+313.702+60.1502C310.479+60.5976+301.998+62.4974+297.407+65.4729C292.033+68.9558+288.449+75.1624+287.225+81.1138C282.333+104.89+294.999+113.981+295.431+133.534C295.732+147.178+286.84+153.812+282.872+166.903C272.335+201.667+298.268+234.923+333.596+238.97C339.369+239.632+346.429+238.63+351.799+236.644C394.093+221.007+348.531+195.164+350.309+172.89C351.877+153.249+365.646+136.413+372.721+117.953C381.272+95.6441+363.944+72.7816+343.682+64.6852C337.683+62.288+334.117+61.6502+327.717+60.6235Z" fill="none" stroke-linejoin="round" stroke-width="6.06699"/>
<g opacity="0">
<path stroke-width="6.06699" stroke-linejoin="round" opacity="1" fill="none" d="M293.251+80.1637L367.507+79.7838" stroke-linecap="round" stroke="#3bd328"/>
<path stroke="#3bd328" stroke-linejoin="round" stroke-linecap="round" d="M282.159+100.105L377.366+100.674" stroke-width="6.06699" fill="none" opacity="1"/>
<path fill="none" d="M282.775+120.425L377.982+120.425" opacity="1" stroke="#3bd328" stroke-linecap="round" stroke-linejoin="round" stroke-width="6.06699"/>
<path opacity="1" stroke-linejoin="round" stroke-width="6.06699" stroke-linecap="round" stroke="#3bd328" d="M282.775+140.556L377.982+140.556" fill="none"/>
<path opacity="1" stroke-width="6.06699" stroke="#3bd328" d="M282.775+160.117L379.763+160.117" stroke-linejoin="round" fill="none" stroke-linecap="round"/>
<path stroke="#3bd328" stroke-linejoin="round" d="M283.262+180.248L380.25+180.628" stroke-width="6.06699" opacity="1" fill="none" stroke-linecap="round"/>
<path stroke="#3bd328" stroke-linecap="round" fill="none" d="M282.775+199.809L377.982+200.569" stroke-linejoin="round" stroke-width="6.06699" opacity="1"/>
<path d="M290.715+219.371L368.811+219.371" opacity="1" stroke-linecap="round" stroke="#3bd328" stroke-width="6.06699" fill="none" stroke-linejoin="round"/>
</g>
<path d="M330.379+60.2532L330.379+60.2532C357.922+60.2532+380.25+82.5812+380.25+110.124L380.25+190.283C380.25+217.826+357.922+240.154+330.379+240.154L330.379+240.154C302.836+240.154+280.508+217.826+280.508+190.283L280.508+110.124C280.508+82.5812+302.836+60.2532+330.379+60.2532Z" opacity="0" fill="#3bd328"/>
<path stroke="#3bd328" stroke-linejoin="round" opacity="0" d="M330.375+60.2532L330.375+60.2532C357.92+60.2532+380.25+82.583+380.25+110.128L380.25+190.279C380.25+217.824+357.92+240.154+330.375+240.154L330.375+240.154C302.83+240.154+280.5+217.824+280.5+190.279L280.5+110.128C280.5+82.583+302.83+60.2532+330.375+60.2532Z" stroke-linecap="round" fill="none" stroke-width="6.06699"/>
<g opacity="0">
<path stroke="#3121a5" stroke-linejoin="round" stroke-width="6.06699" fill="none" opacity="1" d="M318.871+79.7838L338.462+79.7838" stroke-linecap="round"/>
<path stroke-width="6.06699" stroke="#3121a5" fill="none" stroke-linecap="round" stroke-linejoin="round" d="M309.307+100.044L350.964+100.044" opacity="1"/>
<path opacity="1" stroke-width="6.06699" stroke-linejoin="round" stroke-linecap="round" stroke="#3121a5" fill="none" d="M297.797+119.91L361.729+119.91"/>
<path stroke-linecap="round" stroke-width="6.06699" fill="none" opacity="1" stroke="#3121a5" stroke-linejoin="round" d="M287.135+140.22L373.718+140.22"/>
<path opacity="1" stroke-width="6.06699" fill="none" stroke-linecap="round" stroke-linejoin="round" d="M287.135+159.667L373.718+159.564" stroke="#3121a5"/>
<path fill="none" stroke-linecap="round" d="M297.797+179.773L361.729+180.112" stroke-width="6.06699" stroke="#3121a5" opacity="1" stroke-linejoin="round"/>
<path stroke="#3121a5" d="M309.307+199.792L350.964+200.358" stroke-linejoin="round" stroke-width="6.06699" stroke-linecap="round" fill="none" opacity="1"/>
<path opacity="1" d="M318.871+219.371L338.462+219.371" stroke-linejoin="round" fill="none" stroke-linecap="round" stroke-width="6.06699" stroke="#3121a5"/>
</g>
<g opacity="0">
<path fill="#3121a5" opacity="0" d="M329.436+62.8919C327.734+66.2976+326.414+69.8804+324.713+73.2823C323.6+75.5086+322.048+77.4319+320.935+79.6582C318.57+84.3886+316.643+89.5649+313.851+94.063C312.697+95.9224+311.05+97.4372+309.836+99.2581C307.184+103.237+305.333+107.741+302.752+111.774C299.687+116.563+296.367+121.235+293.542+126.179C291.642+129.504+290.355+133.173+288.583+136.569C286.72+140.141+283.246+144.127+282.444+148.14C281.744+151.64+283.738+154.781+285.041+157.822C287.34+163.185+290.415+167.63+293.542+172.463C297.587+178.714+301.761+185.595+305.114+192.299C306.264+194.6+306.769+197.198+308.183+199.383C309.545+201.488+311.244+203.252+312.434+205.523C314.749+209.942+316.852+214.526+319.518+218.747C322.454+223.395+326.021+228.248+328.019+233.388C328.154+233.733+329.137+237.351+329.909+237.403C332.231+237.557+333.946+232.923+334.868+231.499C337.942+226.747+340.931+222.45+343.369+217.33C350.488+202.381+358.887+188.182+366.275+173.407C367.364+171.23+368.158+168.931+369.345+166.795C372.544+161.036+376.438+156.141+378.554+149.793"/>
<path d="M288.094+137.469C286.79+139.737+285.196+141.843+283.969+144.156C283.857+144.366+283.794+144.597+283.688+144.812C284.949+142.253+286.675+139.938+288.094+137.469ZM283.688+144.812C283.628+144.934+283.526+145.033+283.469+145.156C283.301+145.514+283.175+145.879+283.031+146.25C283.224+145.752+283.451+145.288+283.688+144.812ZM282.812+146.781C282.522+147.639+282.334+148.529+282.312+149.438C282.334+148.534+282.525+147.636+282.812+146.781ZM350.344+203.656C348.44+207.269+346.499+210.855+344.719+214.531C343.462+217.126+342.234+219.725+340.781+222.219C342.061+220.023+343.174+217.754+344.281+215.469C346.211+211.484+348.281+207.571+350.344+203.656ZM318.875+217.688C320.512+220.395+322.263+223.034+323.938+225.719C322.264+223.027+320.514+220.398+318.875+217.688ZM323.938+225.719C325.092+227.577+326.206+229.478+327.125+231.469C326.638+230.414+326.167+229.363+325.594+228.344C325.086+227.441+324.485+226.597+323.938+225.719ZM327.125+231.469C327.283+231.812+327.44+232.154+327.594+232.5C327.543+232.376+327.523+232.249+327.469+232.125C327.37+231.898+327.229+231.693+327.125+231.469ZM327.594+232.5C328.002+233.504+328.316+234.485+328.719+235.5C328.788+235.674+328.87+235.822+328.938+236C328.587+235.136+328.4+234.226+328.031+233.375C327.901+233.074+327.726+232.799+327.594+232.5ZM328.938+236C328.992+236.135+329.03+236.274+329.094+236.406C329.134+236.49+329.178+236.52+329.219+236.594C329.122+236.406+329.019+236.214+328.938+236ZM329.219+236.594C329.337+236.822+329.484+237.023+329.656+237.156C329.5+237.031+329.349+236.828+329.219+236.594ZM329.656+237.156C329.706+237.196+329.758+237.254+329.812+237.281C329.753+237.253+329.709+237.197+329.656+237.156ZM329.812+237.281C330.058+237.396+330.34+237.423+330.75+237.25C330.351+237.418+330.059+237.405+329.812+237.281Z" fill="none" opacity="1"/>
</g>
<g opacity="0">
<path fill="none" opacity="1" stroke="#3121a5" d="M329.763+60.2532L280.508+148.538" stroke-linecap="round" stroke-width="6.06699" stroke-linejoin="round"/>
<path opacity="1" stroke-width="6.06699" stroke-linejoin="round" d="M379.763+150.203L329.763+60.2532" fill="none" stroke="#3121a5" stroke-linecap="round"/>
<path d="M329.763+240.154L280.508+150.603" stroke-width="6.06699" fill="none" stroke-linecap="round" opacity="1" stroke-linejoin="round" stroke="#3121a5"/>
<path opacity="1" fill="none" stroke-linecap="round" stroke-width="6.06699" stroke-linejoin="round" d="M379.763+150.603L329.763+240.154" stroke="#3121a5"/>
</g>
</g>
<g vectornator:layerName="2" id="2">
<g opacity="0">
<path opacity="1" stroke-linecap="round" fill="none" stroke="#d32828" stroke-width="6.06699" stroke-linejoin="round" d="M172.896+79.7838L244.812+79.7838"/>
<path opacity="1" fill="none" stroke="#d32828" stroke-width="6.06699" stroke-linecap="round" stroke-linejoin="round" d="M170.298+100.308L256.88+100.308"/>
<path fill="none" stroke-linecap="round" opacity="1" stroke-width="6.06699" d="M177.888+119.922L253.489+120.16" stroke="#d32828" stroke-linejoin="round"/>
<path stroke-width="6.06699" fill="none" opacity="1" stroke="#d32828" stroke-linecap="round" stroke-linejoin="round" d="M180.309+140.022L244.812+140.297"/>
<path stroke="#d32828" stroke-width="6.06699" d="M170.298+160.073L235.135+160.155" stroke-linecap="round" stroke-linejoin="round" opacity="1" fill="none"/>
<path stroke-linejoin="round" stroke="#d32828" stroke-width="6.06699" stroke-linecap="round" opacity="1" fill="none" d="M165.461+179.787L232.8+179.787"/>
<path stroke-width="6.06699" stroke-linejoin="round" stroke-linecap="round" fill="none" stroke="#d32828" opacity="1" d="M244.812+200.296L168.181+200.502"/>
<path opacity="1" stroke-linejoin="round" stroke="#d32828" d="M180.309+219.371L249.805+219.371" stroke-linecap="round" stroke-width="6.06699" fill="none"/>
</g>
<g opacity="0">
<path opacity="0" d="M197.694+61.2153C192.529+62.3632+187.168+63.6224+182.526+66.3528C178.629+68.6453+174.319+71.2521+171.517+74.9154C165.813+82.3755+164.818+93.6595+167.848+102.316C169.799+107.89+172.903+113.171+174.942+118.707C175.547+120.348+175.423+122.154+175.676+123.844C176.156+127.042+177.144+130.103+177.144+133.386C177.144+142.93+171.788+151.532+167.848+159.807C165.502+164.732+164.337+170.843+163.444+176.198C162.044+184.596+161.761+194.555+165.157+202.62C166.546+205.919+169.118+208.656+171.273+211.427C173.798+214.674+175.806+218.365+178.857+221.213C188.638+230.342+198.718+236.304+212.373+237.604C218.172+238.156+223.949+236.545+229.498+235.158C237.41+233.18+245.101+230.956+248.825+222.681C250.612+218.71+250.4+212.147+248.336+208.247C246.465+204.713+242.788+201.937+240.507+198.706C238.952+196.503+239.56+196.33+238.55+194.057C235.527+187.256+232.293+181.407+231.945+173.752C231.323+160.089+238.298+146.764+244.911+135.343C247.447+130.962+250.321+126.701+252.005+121.887C254.724+114.119+256.573+104.014+254.452+95.9549C253.82+93.5547+252.504+91.4597+251.761+89.1048C249.924+83.2896+246.305+77.9398+241.73+73.6922C236.923+69.2283+231.476+67.0371+225.094+65.6189" fill="#d32828"/>
<path d="" fill="none" opacity="1"/>
</g>
<path stroke="#d32828" d="M210.678+60.6235C204.032+59.5574+198.284+59.9253+196.663+60.1502C193.44+60.5976+184.959+62.4974+180.368+65.4729C174.994+68.9558+171.41+75.1624+170.186+81.1138C165.294+104.89+177.96+113.981+178.392+133.534C178.693+147.178+169.801+153.812+165.833+166.903C155.296+201.667+181.229+234.923+216.557+238.97C222.33+239.632+229.39+238.63+234.76+236.644C277.054+221.007+231.492+195.164+233.27+172.89C234.838+153.249+248.607+136.413+255.682+117.953C264.233+95.6441+246.905+72.7816+226.643+64.6852C220.644+62.288+217.078+61.6502+210.678+60.6235Z" fill="none" opacity="0" stroke-width="6.06699" stroke-linecap="round" stroke-linejoin="round"/>
<g opacity="1">
<path fill="none" stroke="#3bd328" opacity="1" stroke-width="6.06699" d="M172.552+80.1637L246.809+79.7838" stroke-linecap="round" stroke-linejoin="round"/>
<path d="M161.461+100.105L256.668+100.674" stroke="#3bd328" opacity="1" stroke-linecap="round" stroke-linejoin="round" stroke-width="6.06699" fill="none"/>
<path opacity="1" stroke-width="6.06699" stroke-linejoin="round" stroke="#3bd328" stroke-linecap="round" fill="none" d="M162.077+120.425L257.284+120.425"/>
<path stroke="#3bd328" stroke-linejoin="round" opacity="1" fill="none" d="M162.077+140.556L257.284+140.556" stroke-width="6.06699" stroke-linecap="round"/>
<path stroke-width="6.06699" stroke-linejoin="round" opacity="1" stroke-linecap="round" d="M162.077+160.117L259.065+160.117" fill="none" stroke="#3bd328"/>
<path stroke-width="6.06699" stroke-linejoin="round" fill="none" stroke-linecap="round" opacity="1" stroke="#3bd328" d="M162.564+180.248L259.552+180.628"/>
<path fill="none" stroke-width="6.06699" opacity="1" d="M162.077+199.809L257.284+200.569" stroke="#3bd328" stroke-linejoin="round" stroke-linecap="round"/>
<path d="M170.016+219.371L248.113+219.371" stroke-linecap="round" fill="none" opacity="1" stroke="#3bd328" stroke-width="6.06699" stroke-linejoin="round"/>
</g>
<path d="M210.332+60.2532L210.332+60.2532C237.875+60.2532+260.203+82.5812+260.203+110.124L260.203+190.283C260.203+217.826+237.875+240.154+210.332+240.154L210.332+240.154C182.789+240.154+160.461+217.826+160.461+190.283L160.461+110.124C160.461+82.5812+182.789+60.2532+210.332+60.2532Z" fill="#3bd328" opacity="0"/>
<path fill="none" stroke="#3bd328" d="M210.336+60.2532L210.336+60.2532C237.881+60.2532+260.211+82.583+260.211+110.128L260.211+190.279C260.211+217.824+237.881+240.154+210.336+240.154L210.336+240.154C182.791+240.154+160.461+217.824+160.461+190.279L160.461+110.128C160.461+82.583+182.791+60.2532+210.336+60.2532Z" stroke-width="6.06699" stroke-linecap="round" opacity="1" stroke-linejoin="round"/>
<g opacity="0">
<path stroke-linejoin="round" fill="none" stroke-linecap="round" stroke-width="6.06699" opacity="1" stroke="#3121a5" d="M199.197+79.7838L218.788+79.7838"/>
<path stroke-linejoin="round" opacity="1" stroke="#3121a5" fill="none" stroke-width="6.06699" stroke-linecap="round" d="M189.633+100.044L231.29+100.044"/>
<path stroke="#3121a5" stroke-linejoin="round" stroke-linecap="round" stroke-width="6.06699" opacity="1" fill="none" d="M178.122+119.91L242.055+119.91"/>
<path stroke="#3121a5" stroke-width="6.06699" fill="none" d="M167.461+140.22L254.044+140.22" stroke-linecap="round" stroke-linejoin="round" opacity="1"/>
<path stroke="#3121a5" stroke-width="6.06699" opacity="1" stroke-linejoin="round" fill="none" d="M167.461+159.667L254.044+159.564" stroke-linecap="round"/>
<path fill="none" stroke="#3121a5" stroke-width="6.06699" stroke-linejoin="round" stroke-linecap="round" d="M178.122+179.773L242.055+180.112" opacity="1"/>
<path d="M189.633+199.792L231.29+200.358" stroke-width="6.06699" stroke-linecap="round" stroke="#3121a5" fill="none" opacity="1" stroke-linejoin="round"/>
<path fill="none" stroke="#3121a5" opacity="1" stroke-width="6.06699" stroke-linecap="round" d="M199.197+219.371L218.788+219.371" stroke-linejoin="round"/>
</g>
<g opacity="0">
<path d="M208.599+62.8919C206.896+66.2976+205.577+69.8804+203.876+73.2823C202.763+75.5086+201.211+77.4319+200.097+79.6582C197.732+84.3886+195.805+89.5649+193.013+94.063C191.859+95.9224+190.213+97.4372+188.999+99.2581C186.346+103.237+184.496+107.741+181.914+111.774C178.849+116.563+175.53+121.235+172.705+126.179C170.805+129.504+169.518+133.173+167.746+136.569C165.882+140.141+162.409+144.127+161.606+148.14C160.906+151.64+162.9+154.781+164.204+157.822C166.502+163.185+169.578+167.63+172.705+172.463C176.749+178.714+180.924+185.595+184.276+192.299C185.426+194.6+185.932+197.198+187.346+199.383C188.708+201.488+190.407+203.252+191.596+205.523C193.911+209.942+196.015+214.526+198.681+218.747C201.616+223.395+205.183+228.248+207.182+233.388C207.316+233.733+208.299+237.351+209.071+237.403C211.394+237.557+213.109+232.923+214.03+231.499C217.105+226.747+220.093+222.45+222.531+217.33C229.65+202.381+238.05+188.182+245.437+173.407C246.526+171.23+247.321+168.931+248.507+166.795C251.706+161.036+255.601+156.141+257.717+149.793" opacity="0" fill="#3121a5"/>
<path opacity="1" fill="none" d=""/>
</g>
<g opacity="0">
<path d="M209.716+60.2532L160.461+148.538" stroke-width="6.06699" fill="none" stroke-linejoin="round" stroke="#3121a5" stroke-linecap="round" opacity="1"/>
<path opacity="1" d="M259.716+150.203L209.716+60.2532" fill="none" stroke="#3121a5" stroke-linecap="round" stroke-width="6.06699" stroke-linejoin="round"/>
<path d="M209.716+240.154L160.461+150.603" stroke-linecap="round" stroke-width="6.06699" opacity="1" fill="none" stroke="#3121a5" stroke-linejoin="round"/>
<path stroke-linejoin="round" opacity="1" stroke="#3121a5" stroke-width="6.06699" d="M259.716+150.603L209.716+240.154" stroke-linecap="round" fill="none"/>
</g>
</g>
<g id="1" vectornator:layerName="1">
<g opacity="0">
<path stroke="#d32828" stroke-linejoin="round" d="M52.8901+79.7838L124.806+79.7838" opacity="1" fill="none" stroke-linecap="round" stroke-width="6.06699"/>
<path stroke-linecap="round" stroke-width="6.06699" stroke="#d32828" opacity="1" stroke-linejoin="round" fill="none" d="M50.292+100.308L136.875+100.308"/>
<path opacity="1" fill="none" stroke-linejoin="round" d="M57.8826+119.922L133.483+120.16" stroke-linecap="round" stroke-width="6.06699" stroke="#d32828"/>
<path fill="none" stroke="#d32828" stroke-linejoin="round" stroke-linecap="round" opacity="1" stroke-width="6.06699" d="M60.3033+140.022L124.806+140.297"/>
<path d="M50.292+160.073L115.129+160.155" stroke-linejoin="round" stroke-linecap="round" stroke="#d32828" opacity="1" fill="none" stroke-width="6.06699"/>
<path fill="none" opacity="1" stroke-linecap="round" d="M45.4554+179.787L112.795+179.787" stroke="#d32828" stroke-width="6.06699" stroke-linejoin="round"/>
<path stroke-linejoin="round" stroke="#d32828" fill="none" opacity="1" d="M124.806+200.296L48.1753+200.502" stroke-width="6.06699" stroke-linecap="round"/>
<path stroke="#d32828" stroke-linecap="round" fill="none" opacity="1" stroke-width="6.06699" d="M60.3033+219.371L129.8+219.371" stroke-linejoin="round"/>
</g>
<g opacity="0">
<path d="M78.6887+61.2153C73.5231+62.3632+68.1625+63.6224+63.5208+66.3528C59.6236+68.6453+55.3131+71.2521+52.5117+74.9154C46.807+82.3755+45.8124+93.6595+48.8421+102.316C50.7933+107.89+53.8974+113.171+55.9368+118.707C56.5415+120.348+56.4171+122.154+56.6707+123.844C57.1504+127.042+58.1386+130.103+58.1386+133.386C58.1386+142.93+52.7826+151.532+48.8421+159.807C46.4969+164.732+45.3311+170.843+44.4385+176.198C43.0388+184.596+42.7554+194.555+46.151+202.62C47.5402+205.919+50.112+208.656+52.2671+211.427C54.7925+214.674+56.8002+218.365+59.8511+221.213C69.632+230.342+79.7129+236.304+93.3674+237.604C99.1666+238.156+104.943+236.545+110.493+235.158C118.404+233.18+126.096+230.956+129.819+222.681C131.606+218.71+131.395+212.147+129.33+208.247C127.459+204.713+123.782+201.937+121.502+198.706C119.947+196.503+120.555+196.33+119.544+194.057C116.522+187.256+113.287+181.407+112.939+173.752C112.318+160.089+119.293+146.764+125.905+135.343C128.442+130.962+131.315+126.701+133+121.887C135.719+114.119+137.567+104.014+135.446+95.9549C134.815+93.5547+133.499+91.4597+132.755+89.1048C130.919+83.2896+127.299+77.9398+122.725+73.6922C117.918+69.2283+112.471+67.0371+106.089+65.6189" opacity="0" fill="#d32828"/>
<path fill="none" d="" opacity="1"/>
</g>
<path d="M90.6727+60.6235C84.0262+59.5574+78.2782+59.9253+76.6576+60.1502C73.4343+60.5976+64.9539+62.4974+60.3624+65.4729C54.988+68.9558+51.4046+75.1624+50.1801+81.1138C45.2881+104.89+57.9545+113.981+58.3862+133.534C58.6874+147.178+49.7957+153.812+45.8277+166.903C35.2908+201.667+61.2231+234.923+96.5515+238.97C102.324+239.632+109.385+238.63+114.755+236.644C157.049+221.007+111.486+195.164+113.264+172.89C114.832+153.249+128.601+136.413+135.676+117.953C144.227+95.6441+126.899+72.7816+106.637+64.6852C100.638+62.288+97.0725+61.6502+90.6727+60.6235Z" stroke-linejoin="round" fill="none" stroke="#d32828" stroke-width="6.06699" stroke-linecap="round" opacity="0"/>
<g opacity="0">
<path stroke-linejoin="round" d="M52.5469+80.1637L126.803+79.7838" opacity="1" stroke-linecap="round" stroke-width="6.06699" stroke="#3bd328" fill="none"/>
<path stroke-linecap="round" stroke-linejoin="round" opacity="1" stroke-width="6.06699" fill="none" d="M41.4554+100.105L136.662+100.674" stroke="#3bd328"/>
<path stroke-width="6.06699" stroke-linejoin="round" fill="none" stroke-linecap="round" opacity="1" d="M42.0717+120.425L137.279+120.425" stroke="#3bd328"/>
<path stroke-width="6.06699" opacity="1" fill="none" stroke-linecap="round" stroke-linejoin="round" d="M42.0717+140.556L137.279+140.556" stroke="#3bd328"/>
<path stroke-linecap="round" fill="none" stroke-width="6.06699" d="M42.0717+160.117L139.059+160.117" stroke="#3bd328" opacity="1" stroke-linejoin="round"/>
<path stroke-linecap="round" stroke="#3bd328" d="M42.5585+180.248L139.546+180.628" fill="none" opacity="1" stroke-width="6.06699" stroke-linejoin="round"/>
<path stroke-width="6.06699" stroke="#3bd328" stroke-linejoin="round" d="M42.0717+199.809L137.279+200.569" opacity="1" stroke-linecap="round" fill="none"/>
<path d="M50.0107+219.371L128.107+219.371" stroke-width="6.06699" stroke-linejoin="round" opacity="1" fill="none" stroke="#3bd328" stroke-linecap="round"/>
</g>
<path fill="#d32828" d="M90.3266+60.2532L90.3266+60.2532C117.87+60.2532+140.198+82.5812+140.198+110.124L140.198+190.283C140.198+217.826+117.87+240.154+90.3266+240.154L90.3266+240.154C62.7835+240.154+40.4554+217.826+40.4554+190.283L40.4554+110.124C40.4554+82.5812+62.7835+60.2532+90.3266+60.2532Z" opacity="1"/>
<path fill="none" stroke-width="6.06699" d="M90.3305+60.2532L90.3305+60.2532C117.876+60.2532+140.205+82.583+140.205+110.128L140.205+190.279C140.205+217.824+117.876+240.154+90.3305+240.154L90.3305+240.154C62.7853+240.154+40.4554+217.824+40.4554+190.279L40.4554+110.128C40.4554+82.583+62.7853+60.2532+90.3305+60.2532Z" stroke="#d32828" stroke-linecap="round" stroke-linejoin="round" opacity="1"/>
<g opacity="0">
<path d="M79.1917+79.7838L98.7826+79.7838" opacity="1" stroke="#3121a5" stroke-width="6.06699" fill="none" stroke-linejoin="round" stroke-linecap="round"/>
<path stroke-linejoin="round" stroke-width="6.06699" stroke-linecap="round" opacity="1" fill="none" d="M69.6275+100.044L111.284+100.044" stroke="#3121a5"/>
<path stroke-linecap="round" fill="none" stroke-width="6.06699" opacity="1" stroke-linejoin="round" d="M58.1168+119.91L122.049+119.91" stroke="#3121a5"/>
<path fill="none" d="M47.4554+140.22L134.038+140.22" stroke-linecap="round" stroke-width="6.06699" stroke="#3121a5" opacity="1" stroke-linejoin="round"/>
<path stroke="#3121a5" stroke-linejoin="round" fill="none" stroke-linecap="round" stroke-width="6.06699" d="M47.4555+159.667L134.038+159.564" opacity="1"/>
<path fill="none" opacity="1" stroke="#3121a5" stroke-width="6.06699" stroke-linejoin="round" stroke-linecap="round" d="M58.1168+179.773L122.049+180.112"/>
<path stroke="#3121a5" fill="none" opacity="1" d="M69.6275+199.792L111.284+200.358" stroke-linecap="round" stroke-width="6.06699" stroke-linejoin="round"/>
<path stroke-linecap="round" stroke="#3121a5" d="M79.1917+219.371L98.7826+219.371" fill="none" stroke-linejoin="round" opacity="1" stroke-width="6.06699"/>
</g>
<g opacity="0">
<path opacity="0" fill="#3121a5" d="M88.5931+62.8919C86.8903+66.2976+85.5712+69.8804+83.8702+73.2823C82.7571+75.5086+81.2051+77.4319+80.0919+79.6582C77.7267+84.3886+75.7995+89.5649+73.0076+94.063C71.8534+95.9224+70.2071+97.4372+68.9931+99.2581C66.3406+103.237+64.4901+107.741+61.9088+111.774C58.8435+116.563+55.5242+121.235+52.6992+126.179C50.7991+129.504+49.5122+133.173+47.7401+136.569C45.8766+140.141+42.403+144.127+41.6004+148.14C40.9003+151.64+42.8946+154.781+44.198+157.822C46.4965+163.185+49.5721+167.63+52.6992+172.463C56.7438+178.714+60.9181+185.595+64.2702+192.299C65.4208+194.6+65.926+197.198+67.3401+199.383C68.7022+201.488+70.4012+203.252+71.5907+205.523C73.9055+209.942+76.009+214.526+78.675+218.747C81.6106+223.395+85.1773+228.248+87.1762+233.388C87.3104+233.733+88.2935+237.351+89.0654+237.403C91.388+237.557+93.103+232.923+94.0244+231.499C97.0991+226.747+100.088+222.45+102.526+217.33C109.644+202.381+118.044+188.182+125.432+173.407C126.52+171.23+127.315+168.931+128.501+166.795C131.701+161.036+135.595+156.141+137.711+149.793"/>
<path d="" opacity="1" fill="none"/>
</g>
<g opacity="0">
<path fill="none" stroke="#3121a5" stroke-linejoin="round" d="M89.7104+60.2532L40.4554+148.538" stroke-width="6.06699" opacity="1" stroke-linecap="round"/>
<path opacity="1" stroke-width="6.06699" fill="none" stroke-linejoin="round" d="M139.711+150.203L89.7104+60.2532" stroke-linecap="round" stroke="#3121a5"/>
<path stroke="#3121a5" opacity="1" fill="none" stroke-linecap="round" d="M89.7104+240.154L40.4554+150.603" stroke-width="6.06699" stroke-linejoin="round"/>
<path stroke-width="6.06699" fill="none" stroke="#3121a5" stroke-linecap="round" stroke-linejoin="round" opacity="1" d="M139.711+150.603L89.7104+240.154"/>
</g>
</g>
</svg>
