<?xml version="1.0" encoding="UTF-8" standalone="no"?> <!-- Created with Vectornator for iOS (http://vectornator.io/) --><!DOCTYPE svg PUBLIC "-//W3C//DTD SVG 1.1//EN" "http://www.w3.org/Graphics/SVG/1.1/DTD/svg11.dtd">
<svg width="100%" height="100%" xmlns:xlink="http://www.w3.org/1999/xlink" xml:space="preserve" viewBox="0 0 419.58 297.675" style="fill-rule:nonzero;clip-rule:evenodd;stroke-linecap:round;stroke-linejoin:round;" version="1.1" xmlns="http://www.w3.org/2000/svg" xmlns:vectornator="http://vectornator.io">
<metadata>
<vectornator:setting value="true" key="WDRulersVisible"/>
<vectornator:setting key="WDCMYKEnabledKey" value="false"/>
<vectornator:setting key="WDOutlineMode" value="false"/>
<vectornator:setting key="WDDisplayWhiteBackground" value="false"/>
<vectornator:setting value="true" key="VNSnapToGuides"/>
<vectornator:setting value="true" key="WDGuidesVisible"/>
<vectornator:setting value="false" key="WDSnapToGrid"/>
<vectornator:setting value="false" key="WDSnapToEdges"/>
<vectornator:setting key="WDDynamicGuides" value="false"/>
<vectornator:setting value="false" key="WDIsolateActiveLayer"/>
<vectornator:setting key="UndoHistoryDisabled" value="false"/>
<vectornator:setting value="false" key="WDSnapToPoints"/>
<vectornator:setting key="VNPencilOnly" value="false"/>
<vectornator:setting value="Millimeters" key="WDUnits"/>
<vectornator:setting key="VNDimensionsVisible" value="true"/>
<vectornator:setting value="false" key="IsTimeLapseWatermarkDisabled"/>
</metadata>
<defs/>
<g vectornator:layerName="Layer 1" id="Layer 1">
<g opacity="1">
<path d="M56.8619+147.505L308.38+147.505" stroke-linecap="round" stroke-width="43.936" fill="none" stroke="#5f8997" opacity="1" stroke-linejoin="round"/>
<path stroke-linejoin="round" stroke-linecap="round" fill="none" stroke="#5f8997" opacity="1" d="M362.718+149.089L319.703+173.756L276.689+198.423L276.834+148.837L276.98+99.2525L319.849+124.171L362.718+149.089Z" stroke-width="43.936"/>
</g>
<g opacity="1">
<g opacity="1">
<path stroke-width="5.19816" d="M276.972+208.449C280.111+206.879+282.562+204.007+285.735+202.315C296.256+196.703+306.066+189.573+315.824+182.742C321.185+178.989+327.235+175.806+332.767+172.226C340.203+167.415+347.956+163.347+355.553+158.788C359.334+156.519+363.58+154.267+366.653+151.193" fill="none" stroke-linejoin="round" stroke="#585858" stroke-linecap="round" opacity="1"/>
<path opacity="1" stroke-linecap="round" stroke-linejoin="round" stroke="#585858" d="M277.264+207.573C277.264+202.056+276.384+196.698+276.095+191.214C275.879+187.109+276.258+183.036+275.803+178.945C274.855+170.408+275.803+161.235+275.803+152.654C275.803+133.153+276.387+113.678+276.387+94.2292" stroke-width="5.19816" fill="none"/>
<path opacity="1" stroke="#585858" d="M277.556+93.0607C280.215+94.3901+282.735+96.8538+285.151+98.611C289.081+101.469+293.522+104.396+297.712+106.79C303.37+110.024+309.371+112.792+314.948+116.138C320.716+119.6+326.448+123.641+332.475+126.655C336.373+128.604+340.158+130.471+343.868+132.789C347.585+135.113+350.974+137.778+354.676+140.092C357.379+141.782+360.555+142.915+363.148+144.766C364.589+145.796+367.578+149.44+369.282+149.44" fill="none" stroke-linejoin="round" stroke-width="5.19816" stroke-linecap="round"/>
<path stroke-linecap="round" d="M271.591+135.663C266.228+135.663+261.04+137.217+255.579+136.914C236.14+135.834+216.743+136.664+197.285+136.664C171.772+136.664+146.195+136.257+120.727+137.414C108.229+137.982+95.602+136.947+83.1993+135.913C73.0902+135.071+62.7795+135.913+52.6763+135.913" opacity="1" stroke-width="5.19816" stroke="#585858" stroke-linejoin="round" fill="none"/>
<path stroke-linejoin="round" stroke-width="5.19816" opacity="1" fill="none" d="M273.843+157.179C258.695+157.179+243.662+156.933+228.559+156.178C205.245+155.013+181.774+156.091+158.506+154.927C154.657+154.735+150.824+155.189+146.997+155.428C141.367+155.78+135.243+154.259+129.734+155.178C126.483+155.719+122.799+155.77+119.477+155.928C109.358+156.41+99.0451+155.337+88.9536+156.178C76.9676+157.177+64.7468+156.679+52.6763+156.679" stroke="#585858" stroke-linecap="round"/>
</g>
<path stroke-linejoin="round" opacity="1" stroke-width="5.19816" d="M50.4246+136.664C49.4099+138.693+50.3744+140.399+50.925+142.418C51.5276+144.628+51.4254+146.911+51.4254+149.173C51.4254+150.36+51.9423+155.92+52.4261+155.678" fill="none" stroke="#585858" stroke-linecap="round"/>
</g>
</g>
</svg>
