<?xml version="1.0" encoding="UTF-8" standalone="no"?> <!-- Created with Vectornator for iOS (http://vectornator.io/) --><!DOCTYPE svg PUBLIC "-//W3C//DTD SVG 1.1//EN" "http://www.w3.org/Graphics/SVG/1.1/DTD/svg11.dtd">
<svg xmlns:xlink="http://www.w3.org/1999/xlink" xmlns:vectornator="http://vectornator.io" viewBox="0 0 800 800" version="1.1" style="fill-rule:nonzero;clip-rule:evenodd;stroke-linecap:round;stroke-linejoin:round;" xmlns="http://www.w3.org/2000/svg" xml:space="preserve">
<metadata>
<vectornator:setting value="false" key="WDOutlineMode"/>
<vectornator:setting key="WDSnapToPoints" value="false"/>
<vectornator:setting key="WDRulersVisible" value="true"/>
<vectornator:setting key="WDSnapToEdges" value="false"/>
<vectornator:setting key="WDSnapToGrid" value="false"/>
<vectornator:setting key="WDCMYKEnabledKey" value="false"/>
<vectornator:setting key="WDIsolateActiveLayer" value="false"/>
<vectornator:setting key="VNPencilOnly" value="false"/>
<vectornator:setting value="true" key="VNSnapToGuides"/>
<vectornator:setting value="true" key="WDGuidesVisible"/>
<vectornator:setting key="WDDynamicGuides" value="false"/>
<vectornator:setting key="WDDisplayWhiteBackground" value="false"/>
<vectornator:setting value="Points" key="WDUnits"/>
<vectornator:setting value="true" key="VNDimensionsVisible"/>
<vectornator:setting key="IsTimeLapseWatermarkDisabled" value="false"/>
<vectornator:setting key="UndoHistoryDisabled" value="false"/>
</metadata>
<defs/>
<g id="Layer 4" vectornator:layerName="Layer 4">
<g opacity="1">
<g opacity="1">
<g opacity="1">
<path fill="#ddadba" opacity="1" d="M260.208+350.265C255.817+357.53+248.173+372.123+245.062+380.094C241.34+389.63+239.943+390.713+236.308+400.285C232.879+409.313+229.536+425.664+227.074+434.97C221.867+454.658+218.547+476.61+217.633+497.045C216.996+511.286+217.435+525.405+221.333+539.505C228.338+564.847+238.158+572.132+255.51+581.559C259.97+583.982+266.822+585.436+271.594+587.034C285.182+591.582+296.063+593.18+310.427+594.395C330.802+596.118+344.322+596.205+364.732+597.202C370.446+597.482+383.069+596.821+388.786+597.088C399.33+597.58+409.902+597.131+420.442+597.646C438.739+598.541+456.132+599.46+473.9+593.562C483.52+590.368+490.314+584.653+497.792+578.023C501.968+574.32+506.958+571.183+510.261+566.621C520.521+552.452+528.092+538.19+530.746+521.082C531.725+514.766+532.696+507.839+532.83+501.453C533.351+476.612+528.053+455.756+524.955+433.869C524.121+427.982+522.228+421.757+521.432+415.864C519.496+401.534+519.177+386.677+514.655+373.055C513.021+368.13+512.592+358.221+507.932+354.883C506.757+354.042+499.19+353.366+498.073+353.314C487.071+352.8+477.137+356.04+466.412+357.426C454.872+358.916+442.743+357.915+431.122+357.9C421.572+357.888+418.164+356.029+408.582+355.581C403.207+355.33+391.87+357.588+386.492+357.326C370.885+356.563+357.743+349.368+342.062+349.555C324.989+349.759+305.377+357.413+288.408+358.241C281.648+358.57+278.651+356.127+271.935+355.447C267.437+354.991+262.58+346.34+260.208+350.265Z"/>
<path opacity="1" d="" fill="none"/>
</g>
<g opacity="1">
<path d="M402.279+597.103C422.242+566.654+432.844+500.466+429.911+465.222C426.204+420.662+422.457+398.247+412.724+355.131C427.464+350.435+398.7+355.658+407.369+356.033C420.719+356.61+449.381+355.43+462.7+356.509C477.632+357.718+482.737+334.302+497.249+344.107C512.734+354.569+519.827+391.044+523.35+408.776C528.36+433.992+531.493+457.904+533.251+487.07C534.219+503.109+531.919+523.774+527.108+539.044C518.898+565.105+506.948+574.499+493.728+582.824C470.698+597.327+441.216+597.479+402.279+597.103Z" fill="#c499ad" opacity="1"/>
<path d="" opacity="1" fill="none"/>
</g>
<g opacity="1">
<path fill="#c48995" opacity="1" d="M250.377+345.25C271.088+366.891+323.489+380.733+348.723+362.467C358.267+355.559+354.33+338.361+361.921+329.35"/>
<path opacity="1" d="" fill="none"/>
</g>
<g opacity="1">
<path opacity="1" fill="#bd809a" d="M381.026+341.538C413.791+369.402+433.663+379.992+468.844+372.083C490.218+367.278+494.571+355.927+500.481+349.174C501.896+347.557+509.766+358.669+508.859+352.019"/>
<path d="" fill="none" opacity="1"/>
</g>
<g opacity="1">
<path opacity="1" d="M326.102+342.583C327.793+350.377+333.927+355.327+339.841+360.024C342.992+362.526+345.807+365.555+349.501+367.232C370.338+376.696+399.263+382.715+414.935+366.389C416.058+365.22+412.868+358.562+413.152+357.025C414.172+351.502+415.539+347.997+417.213+345.73" fill="#c48995"/>
<path d="" fill="none" opacity="1"/>
</g>
<g opacity="1">
<path fill="#aaf1f8" opacity="1" fill-opacity="0.394144" d="M289.225+355.231C279.471+372.252+269.653+398.451+264.352+417.443C262.817+422.939+262.729+427.278+261.689+433.295C260.69+439.078+258.583+444.525+257.44+450.202C255.807+458.315+256.697+460.147+255.831+468.697C254.158+485.225+252.734+502.787+254.711+519.432C256.707+536.249+258.854+555.894+268.917+570.186C269.995+571.718+271.663+572.804+272.611+574.419C273.456+575.861+273.481+577.665+274.19+579.178C274.896+580.682+277.573+581.923+276.828+583.409C275.903+585.252+273.064+585.323+271.011+585.516C269.223+585.684+267.485+584.824+265.728+584.452C260.116+583.263+252.064+580.748+247.314+577.423C236.937+570.158+226.394+561.363+221.556+541.907C216.741+522.544+216.49+495.824+218.825+475.805C220.25+463.592+222.312+453.763+224.978+441.158C226.681+433.106+228.371+423.489+230.99+416.313C232.991+410.833+236.137+399.715+238.31+394.301C242.918+382.824+254.574+360.93+260.606+350.103"/>
<path opacity="1" d="" fill="none"/>
</g>
</g>
<path stroke-width="2.76796" stroke="#ffffff" opacity="1" fill="none" d="M256.87+353.625C227.098+403.055+212.399+463.484+216.141+521.159C216.707+529.89+219.107+548.539+224.14+557.721C238.465+583.854+276.216+594.239+303.424+596.67C326.724+598.752+350.139+599.497+373.528+599.886C394.449+600.234+415.402+600.079+436.291+598.882C454.666+597.83+470.848+595.932+487.347+588.605C551.016+560.328+535.95+473.337+528.043+418.451C525.935+403.819+522.756+390.345+518.032+377.237C515.172+369.303+512.286+361.338+506.147+350.506" stroke-linecap="round" stroke-linejoin="round"/>
<g opacity="1">
<path opacity="1" fill="#52b454" d="M444.711+336.439C461.014+336.455+476.29+351.042+492.303+348.209C500.386+346.78+513.714+350.643+521.472+348.465C536.006+344.385+549.827+342.345+563.179+335.16C573.77+329.461+586.312+319.248+595.675+313.155C606.408+306.17+611.383+294.943+617.756+284.996C619.062+282.957+622.625+278.317+619.753+275.687C618.023+274.103+617.087+272.721+614.609+271.96C612.016+271.162+610.119+270.526+607.445+269.913C595.516+267.176+579.285+267.944+566.903+268.393C553.737+268.871+542.556+281.98+529.916+285.265C518.469+288.24+506.624+280.748+495.515+284.359C470.203+292.587+444.49+301.238+423.442+315.326"/>
<path fill="none" d="" opacity="1"/>
</g>
<g opacity="1">
<path fill="#56ae57" opacity="1" d="M364.029+300.835C360.835+295.541+358.735+289.265+355.276+284.205C351.205+278.252+343.082+273.224+337.749+268.572C316.187+249.764+293.64+238.88+265.654+235.745C257.397+234.82+250.919+235.078+242.746+236.219C240.968+236.467+238.756+235.52+237.384+236.716C234.966+238.825+237.266+246.106+237.858+247.795C241.665+258.655+247.94+269.177+254.392+278.535C269.277+300.124+297.908+314.621+323.067+317.904C334.772+319.431+346.479+318.742+358.157+319.964"/>
<path opacity="1" d="" fill="none"/>
</g>
<g opacity="1">
<path opacity="1" d="M322.571+324.953C313.794+309.796+298.203+304.382+285.079+294.186C280.739+290.814+276.759+286.966+272.42+283.594C268.634+280.653+264.249+278.638+260.244+276.025C254.573+272.325+250.043+268.146+244.174+264.925C239.404+262.309+235.251+258.529+230.538+255.843C225.273+252.842+219.693+250.598+213.975+248.771C206.733+246.459+199.376+245.106+192.049+243.204C188.862+242.376+188.619+244.27+184.459+243.731C180.299+243.191+180.483+244.453+179.02+244.786C177.558+245.12+176.571+243.965+176.175+245.457C175.711+247.208+175.662+246.594+176.446+248.219C177.134+249.645+177.378+251.256+177.903+252.753C181.528+263.094+186.374+272.027+192.49+280.973C195.143+284.853+197.201+289.14+199.787+293.068C201.927+296.321+204.778+299.015+207.086+302.142C221.993+322.336+239.463+342.801+262.588+353.076C268.751+355.815+283.548+356.116+290.048+357.618" fill="#5ec160"/>
<path opacity="1" fill="none" d=""/>
</g>
<g opacity="1">
<path fill-opacity="0.581306" opacity="1" d="M177.998+246.037C179.253+257.119+184.276+265.689+187.616+272.8C197.021+292.821+224.414+333.642+245.74+336.36C242.427+333.045+244.305+331.171+240.513+328.415C229.355+320.306+213.981+304.505+206.015+293.289C198.567+282.803+193.506+275.676+187.737+263.23C185.079+257.493+182.491+250.487+177.998+246.037Z" fill="#a0f8f7"/>
<path d="M178+246.031C178+246.031+183.197+255.434+188.875+265.5C188.751+265.243+188.591+265.008+188.469+264.75C185.387+258.266+178+246.031+178+246.031ZM178+246.031C178+246.031+179.589+254.565+181.125+258.656C182.716+262.894+184.782+266.931+186.75+271C184.778+266.932+178+246.031+178+246.031ZM188.875+265.5C192.32+272.626+196.359+279.385+200.844+285.906C198.734+282.839+193.597+273.871+188.875+265.5ZM187.375+272.25C188.339+274.245+189.274+276.228+190.312+278.188C191.375+280.191+192.548+282.174+193.688+284.156C191.438+280.263+189.33+276.308+187.375+272.25ZM194.031+284.781C198.369+292.267+203.192+299.57+208.5+306.438C206.078+303.274+203.795+300.014+201.562+296.719C198.923+292.823+196.397+288.84+194.031+284.781ZM208.156+296.188C211.475+300.514+215.082+304.617+218.812+308.594C215.087+304.616+211.474+300.513+208.156+296.188ZM208.594+306.531C210.854+309.452+213.183+312.314+215.594+315.062C215.725+315.212+215.868+315.351+216+315.5C213.432+312.594+210.954+309.61+208.594+306.531ZM216+315.5C216.098+315.611+216.183+315.733+216.281+315.844C216.844+316.477+217.457+317.064+218.031+317.688C217.357+316.955+216.659+316.246+216+315.5ZM218.031+317.688C219.08+318.826+220.127+319.965+221.219+321.062C220.127+319.965+219.08+318.826+218.031+317.688ZM221.219+321.062C221.889+321.737+222.592+322.376+223.281+323.031C222.592+322.376+221.889+321.737+221.219+321.062ZM223.281+323.031C224.226+323.931+225.142+324.86+226.125+325.719C226.332+325.9+226.572+326.039+226.781+326.219C225.582+325.194+224.424+324.119+223.281+323.031ZM226.781+326.219C227.05+326.449+227.291+326.711+227.562+326.938C228.395+327.63+229.324+328.189+230.188+328.844C229.042+327.977+227.872+327.153+226.781+326.219ZM230.188+328.844C231.215+329.621+232.173+330.481+233.25+331.188C233.507+331.356+233.803+331.461+234.062+331.625C232.716+330.775+231.457+329.806+230.188+328.844ZM234.062+331.625C234.283+331.764+234.465+331.958+234.688+332.094C235.357+332.501+236.089+332.786+236.781+333.156C235.866+332.667+234.94+332.179+234.062+331.625ZM236.781+333.156C237.495+333.538+238.167+334.012+238.906+334.344C239.187+334.47+239.475+334.542+239.75+334.656C238.723+334.232+237.762+333.68+236.781+333.156ZM239.75+334.656C239.936+334.733+240.094+334.865+240.281+334.938C240.69+335.097+241.146+335.226+241.594+335.375C240.956+335.162+240.355+334.907+239.75+334.656ZM219.156+308.969C219.359+309.184+219.547+309.411+219.75+309.625C220.895+310.831+222.109+311.973+223.281+313.156C221.899+311.765+220.499+310.396+219.156+308.969ZM223.281+313.156C224.294+314.176+225.277+315.221+226.312+316.219C225.279+315.219+224.292+314.177+223.281+313.156ZM226.312+316.219C227.438+317.307+228.596+318.349+229.75+319.406C228.598+318.351+227.438+317.304+226.312+316.219ZM229.75+319.406C230.864+320.427+231.953+321.478+233.094+322.469C233.4+322.735+233.723+322.986+234.031+323.25C232.568+322.008+231.166+320.704+229.75+319.406ZM234.031+323.25C234.234+323.422+234.421+323.61+234.625+323.781C235.208+324.271+235.816+324.738+236.406+325.219C235.61+324.571+234.811+323.916+234.031+323.25ZM236.406+325.219C236.824+325.559+237.233+325.916+237.656+326.25C237.88+326.427+238.114+326.579+238.344+326.75C237.695+326.246+237.043+325.737+236.406+325.219ZM238.344+326.75C238.6+326.949+238.835+327.178+239.094+327.375C240.083+328.127+241.16+328.793+242+329.719C241.553+329.227+241.01+328.832+240.5+328.406C239.801+327.823+239.079+327.297+238.344+326.75ZM242+329.719C242.595+330.374+242.931+331.264+243.25+332.094C242.952+331.254+242.625+330.408+242+329.719ZM243.312+332.188C243.421+332.498+243.51+332.815+243.625+333.125C243.707+333.345+243.841+333.538+243.938+333.75C243.718+333.236+243.515+332.716+243.312+332.188ZM243.938+333.75C244.04+333.989+244.117+334.238+244.25+334.469C244.399+334.727+244.542+334.946+244.719+335.188C244.394+334.743+244.164+334.247+243.938+333.75Z" opacity="1" fill="none"/>
</g>
<g opacity="1">
<path fill="#a0f8f7" opacity="1" fill-opacity="0.581306" d="M237.546+238.355C237.7+243.663+240.143+254.59+243.039+259.575C244.564+262.2+247.289+262.767+250.28+263.846C249.309+260.577+245.995+255.801+243.613+250.37C240.989+244.386+239.258+237.896+237.546+238.355Z"/>
<path fill="none" opacity="1" d="M237.531+238.344C237.531+238.344+239.819+240.901+240.25+241.938C239.86+240.997+239.429+240.026+238.844+239.188C238.524+238.73+237.531+238.344+237.531+238.344ZM237.531+238.344C237.531+238.344+238.532+246.263+239.531+250.094C240.184+252.596+240.93+255.065+241.969+257.438C240.93+255.065+237.531+238.344+237.531+238.344ZM242.375+247.375C242.573+247.876+242.763+248.377+242.969+248.875C243.871+251.055+245.057+253.082+246.156+255.156C244.817+252.597+243.447+250.078+242.375+247.375ZM246.156+255.156C246.628+256.058+246.979+257.008+247.469+257.906C247.872+258.646+248.269+259.408+248.656+260.156C248.463+259.785+248.291+259.399+248.094+259.031C247.408+257.755+246.832+256.432+246.156+255.156ZM248.656+260.156C248.997+260.812+249.329+261.48+249.625+262.156C249.539+261.983+249.483+261.788+249.406+261.625C249.175+261.13+248.908+260.641+248.656+260.156ZM249.625+262.156C249.872+262.652+250.143+263.161+250.219+263.688C250.223+263.338+249.908+262.792+249.812+262.562C249.756+262.425+249.685+262.292+249.625+262.156ZM250.219+263.688C250.25+263.907+249.633+263.628+249.531+263.594C249.594+263.616+249.656+263.634+249.719+263.656C249.786+263.68+250.216+263.864+250.219+263.688Z"/>
</g>
<g opacity="1">
<path fill="#5ab451" d="M372.273+334.586C366.491+337.835+361.024+342.05+355.202+345.139C344.924+350.593+332.33+353.158+321.072+355.166C315.47+356.166+310.182+358.67+304.496+359.174C297.852+359.762+292.765+358.694+286.465+357.136C283.446+356.389+280.254+356.721+277.206+356.117C271.678+355.022+265.726+353.053+260.641+350.556C252.556+346.586+248.37+343.884+240.803+338.984C239.504+338.143+237.38+336.779+236.082+335.938C234.783+335.097+231.869+334.876+232.274+333.349C232.813+331.321+236.392+330.632+238.214+329.694C244.885+326.259+249.119+322.417+255.806+318.824C269.853+311.274+285.261+307.29+300.664+303.774C315.581+300.37+328.882+297.81+344.045+301.313" opacity="1"/>
<path opacity="1" fill="none" d=""/>
</g>
<g opacity="1">
<path opacity="1" d="M374.308+264.59C384.205+256.657+394.694+250.445+405.526+243.984C411.976+240.137+422.513+231.459+429.236+228.109C446.389+219.561+453.902+215.276+472.111+209.926C479.544+207.743+491.507+205.143+498.988+203.149C500.934+202.631+505.54+200.865+507.54+200.671C509.005+200.529+509.325+202.757+510.364+203.833C511.422+204.928+510.595+211.803+510.353+212.897C509.861+215.123+509.121+217.285+508.396+219.441C504.91+229.803+499.232+240.094+493.251+249.133C489.408+254.94+484.71+259.145+480.073+264.224C459.939+286.271+432.477+299.438+405.932+311.464C396.35+315.806+387.222+321.146+377.646+325.528" fill="#4a9e4b"/>
<path d="" opacity="1" fill="none"/>
</g>
<g opacity="1">
<path d="M329.113+240.813C336.539+228.06+348.511+216.037+359.225+206.738C362.622+203.79+373.323+197.514+377.868+196.402C382.387+195.297+381.177+196.833+383.444+198.806C386.87+201.787+392.982+206.571+397.118+211.124C411.987+227.488+427.416+257.419+425.465+280.268C425.069+284.905+423.327+289.94+422.036+294.364" opacity="1" fill="#4a9e4b"/>
<path d="" opacity="1" fill="none"/>
</g>
<g opacity="1">
<path fill="#55ae56" opacity="1" d="M364.288+262.768C362.2+259.06+359.935+252.307+357.206+249.075C352.205+243.156+352.473+240.236+347.278+234.855C345.485+232.999+341.492+226.671+339.751+224.762C334.177+218.648+327.007+211.843+320.277+207.112C318.111+205.589+315.61+204.618+313.458+203.074C311.374+201.579+309.713+199.508+307.616+198.031C303.084+194.838+296.292+191.764+291.054+189.952C289.483+189.409+287.58+188.021+286.182+188.939C284.939+189.753+285.764+191.952+285.689+193.47C285.597+195.314+285.61+197.165+285.682+199.01C286.106+209.853+290.414+220.576+294.905+230.244C298.254+237.454+301.237+244.745+305.601+251.408C321.415+275.551+349.746+298.935+377.67+305.385"/>
<path opacity="1" d="" fill="none"/>
</g>
<g opacity="1">
<path fill="#a0f8f7" fill-opacity="0.581306" opacity="1" d="M286.259+190.113C284.757+197.923+290.136+214.243+291.064+218.096C293.212+227.024+298.737+241.196+303.119+248.859C305.634+253.256+309.803+256.183+313.687+259.823C308.657+248.397+301.497+235.866+296.647+222.704C292.518+211.501+290.722+199.601+286.259+190.113Z"/>
<path d="M286.25+190.125C286.25+190.125+292.351+209.984+295.656+219.875C297.598+225.685+300.109+231.302+302.719+236.844C299.91+230.723+286.25+190.125+286.25+190.125ZM286.25+190.125C286.25+190.125+286.014+195.791+286.406+198.594C286.763+201.14+287.377+203.653+287.969+206.156C287.209+202.284+286.25+190.125+286.25+190.125ZM287.969+206.156C288.002+206.327+288.03+206.834+288.062+206.969C288.144+207.306+288.26+207.632+288.344+207.969C288.195+207.371+288.111+206.756+287.969+206.156ZM288.344+207.969C288.372+208.082+288.378+208.2+288.406+208.312C289.099+211.063+289.901+213.766+290.656+216.5C289.866+213.658+289.06+210.831+288.344+207.969ZM302.719+236.844C302.739+236.888+302.824+237.178+302.844+237.219C303.036+237.627+303.243+238.03+303.438+238.438C303.187+237.911+302.967+237.372+302.719+236.844ZM308.125+248.062C309.101+250.049+310.048+252.033+311+254.031C310.769+253.547+310.558+253.04+310.312+252.531C309.588+251.03+308.86+249.559+308.125+248.062ZM311+254.031C311.44+254.955+311.946+256.008+312.375+256.938C312.151+256.451+311.946+255.985+311.719+255.5C311.481+254.994+311.229+254.512+311+254.031Z" opacity="1" fill="none"/>
</g>
<g opacity="1">
<path fill="#52b454" d="M396.187+308.43C417.501+292.457+441.696+281.076+465.93+270.752C484.563+262.814+503.493+255.263+523.465+252.194C532.646+250.783+541.477+249.526+550.764+248.704C552.39+248.56+554.345+247.177+555.638+248.207C557.105+249.376+557.256+251.842+557.094+253.748C556.691+258.469+553.584+262.506+551.716+266.834C546.55+278.803+538.459+290.41+528.77+299.034C504.298+320.815+466.333+326.65+435.157+326.61C422.934+326.594+410.359+333.408+398.691+329.372" opacity="1"/>
<path d="" fill="none" opacity="1"/>
</g>
<g opacity="1">
<path fill="#468947" d="M291.741+188.476C274.364+178.713+310.364+229.683+323.809+244.762C330.557+252.331+340.919+260.421+349.155+266.221C355.939+270.999+364.579+269.269+371.201+265.216C373.368+263.89+372.785+265.229+373.329+262.657C373.965+259.652+368.539+260.787+366.698+258.402C362.947+253.539+360.193+249.036+356.778+243.907C351.633+236.18+345.103+229.256+336.239+219.806C324.422+207.208+312.331+200.043+291.741+188.476Z" opacity="1"/>
<path d="" opacity="1" fill="none"/>
</g>
<g opacity="1">
<path d="M353.171+297.957C332.063+296.008+294.441+302.897+272.292+311.709C269.258+312.916+266.311+314.24+263.432+315.632C262.036+316.306+258.234+317.092+259.489+317.898C262.986+320.146+276.544+320.513+281.548+320.075C287.579+319.546+293.528+318.597+299.484+317.728C317.941+315.037+347.343+309.915+362.343+305.917" opacity="1" fill="#4a9e4b"/>
<path fill="none" d="" opacity="1"/>
</g>
<g opacity="1">
<path opacity="1" fill="#4cad4d" d="M401.852+339.931C405.049+332.017+408.205+323.748+408.684+315.097C408.918+310.87+407.85+302.589+407.464+298.44C406.535+288.43+405.236+279.612+400.998+270.498C395.994+259.734+389.846+250.001+381.23+242.011C378.808+239.765+376.492+236.757+372.527+238.26C371.081+238.808+370.435+240.602+369.364+241.747C368.135+243.06+366.783+244.255+365.625+245.635C360.938+251.224+356.596+257.649+353.54+264.313C348.932+274.356+344.618+284.55+343.445+295.693C341.656+312.676+347.327+334.866+361.172+344.818"/>
<path d="" fill="none" opacity="1"/>
</g>
<g opacity="1">
<path opacity="1" d="M416.469+330.681C415.583+327.31+414.915+318.883+412.483+316.457C406.569+310.558+403.25+305.981+395.471+304.248C374.728+299.628+362.144+301.853+343.544+312.391C335.081+317.186+326.202+323.206+319.64+330.489C317.56+332.797+314.718+336.069+315.73+339.045C316.264+340.612+318.002+341.398+319.138+342.574C325.578+349.245+338.471+344.877+346.848+348.599C359.059+354.025+371.223+366.319+384.423+363.306C395.45+360.789+406.531+354.041+415.149+346.727C419.013+343.448+428.44+336.471+430.277+331.639C431.244+329.096+417.161+333.318+416.469+330.681Z" fill="#5ab451"/>
<path fill="none" opacity="1" d=""/>
</g>
<g opacity="1">
<path d="M620.991+276.97C623.659+280.26+619.662+287.002+617.614+289.3C604.788+303.685+592.593+315.974+576.976+326.57C562.134+336.64+545.06+343.492+527.762+347.631C513.28+351.096+500.417+347.469+487.72+342.063C481.346+339.348+475.013+336.185+468.539+333.244C472.782+329.161+487.873+332.488+494.424+330.472C517.114+323.488+539.677+316.034+562.037+307.991C583.204+300.377+600.479+285.959+620.991+276.97Z" opacity="1" fill="#408040"/>
<path opacity="1" fill="none" d=""/>
</g>
<g opacity="1">
<path opacity="1" d="M400.143+348.26C405.678+350.418+410.508+359.201+416.377+360.281C419.267+360.814+419.813+361.442+422.786+361.638C432.494+362.277+444.312+359.261+453.772+357.216C455.818+356.773+446.917+357.889+448.982+357.312C450.764+356.814+460.677+356.41+463.312+356.542C466.415+356.698+472.863+356.292+475+355.828C481.05+354.514+485.954+352.143+491.728+350.103C492.789+349.728+493.905+349.459+494.935+349.027C495.838+348.648+497.368+348.521+497.502+347.68C497.668+346.64+496.409+345.764+495.583+344.979C494.675+344.117+493.426+343.559+492.38+342.816C487.241+339.163+482.289+335.882+476.044+333.621C471.734+332.06+467.402+330.445+462.907+329.288C458.196+328.075+453.299+327.856+448.484+327.113C443.019+326.271+437.387+325.661+431.815+326.016C422.985+326.579+413.56+329.467+405.518+332.467" fill="#5ab451"/>
<path opacity="1" d="" fill="none"/>
</g>
<g opacity="1">
<path d="M496.633+345.99C504.052+349.173+466.595+361.05+462.078+362.138C446.237+365.954+414.33+365.768+402.819+353.348C398.803+349.016+405.786+340.731+410.064+338.97C417.383+335.958+422.836+340.732+429.889+342.156C439.087+344.012+448.443+344.912+457.739+346.142C463.282+346.876+469.035+346.838+474.992+345.991C481.086+345.125+489.619+342.981+496.633+345.99Z" fill="#458046" opacity="1"/>
<path d="" opacity="1" fill="none"/>
</g>
<g opacity="1">
<path d="M414.897+327.781C410.784+329.9+407.411+331.918+402.889+333.08C397.709+334.411+392.156+333.388+386.885+334.241C381.702+335.079+376.781+336.02+371.453+335.402C364.279+334.569+356.609+332.309+349.742+330.059C348.019+329.494+341.818+330.707+340.256+331.646C338.537+332.679+338.716+335.954+338.714+338.009C338.711+339.876+341.078+343.901+341.921+345.552C345.158+351.888+351.056+356.82+357.042+360.469C369.215+367.889+394.857+362.759+405.722+353.161C407.358+351.716+411.398+345.952+412.591+344.312" opacity="1" fill="#458046"/>
<path fill="none" d="" opacity="1"/>
</g>
<g opacity="1">
<path d="M420.87+320.063C425.579+322.148+435.883+319.726+441.509+318.427C465.585+312.868+474.752+309.842+498.597+303.308C523.094+296.595+550.673+289.129+555.026+259.218C548.257+260.702+543.8+267.615+537.842+271.252C530.356+275.822+522.393+279.599+514.251+282.753C488.431+292.757+487.833+293.847+461.591+302.601C455.412+304.663+423.328+311.727+420.87+320.063Z" fill="#3d7e3d" opacity="1"/>
<path opacity="1" d="" fill="none"/>
</g>
<g opacity="1">
<path fill="#3a703b" opacity="1" d="M508.661+209.353C501.27+216.074+497.536+218.837+490.463+224.541C484.723+229.171+478.96+233.38+473.301+238.1C465.481+244.625+456.501+250.035+448.133+255.783C439.453+261.745+431.331+268.529+422.392+274.055C416.537+277.675+412.774+280.909+414.373+288.807C414.757+290.705+414.843+293.612+416.653+294.125C418.347+294.605+419.209+291.613+420.658+290.587C422.275+289.441+424.05+288.545+425.805+287.641C432.75+284.065+439.503+280.184+446.393+276.448C458.679+269.788+473.504+266.851+484.707+258.192C492.539+252.139+495.968+241.769+500.74+233.412C503.069+229.332+504.787+227.633+505.896+222.79C506.582+219.796+510.896+207.32+508.661+209.353Z"/>
<path opacity="1" fill="none" d=""/>
</g>
<g opacity="1">
<path opacity="1" fill="#396e3a" d="M412.154+233.297C411.961+235.659+409.4+237.168+407.576+238.606C404.662+240.902+400.811+241.673+397.854+243.908C396.436+244.979+395.494+246.811+393.849+247.446C392.243+248.066+390.378+247.825+388.705+247.439C386.3+246.883+380.721+244.154+380.14+240.932C379.809+239.097+381.125+237.325+381.861+235.62C383.36+232.148+385.464+228.774+385.875+224.996C386.279+221.28+386.074+217.512+385.888+213.777C385.8+211.997+383.859+209.404+385.323+208.461C386.916+207.436+388.874+209.8+390.464+210.83C391.952+211.794+393.09+213.243+394.46+214.378C398.316+217.574+406.003+220.188+408.736+224.435C410.44+227.083+412.414+230.129+412.154+233.297Z"/>
<path fill="none" opacity="1" d=""/>
</g>
<g opacity="1">
<path d="M418.919+310.662C420.011+304.502+418.816+294.07+417.908+287.761C415.946+274.133+407.513+260.293+397.845+250.994C392.434+245.789+386.699+241.035+379.572+238.57C377.906+237.994+375.362+235.844+374.429+237.382C373.34+239.178+376.121+241.259+376.708+243.29C377.713+246.767+378.047+250.911+378.409+254.512C379.625+266.59+379.746+279.693+377.793+291.713C377.502+293.502+376.567+298.805+376.968+300.572C377.402+302.488+378.151+301.597+380.066+301.754C384.509+302.118+392.799+303.276+396.07+304.791C400.301+306.751+405.856+310.657+407.569+312.685C411.154+316.928+411.672+317.595+413.137+320.158C414.007+321.68+414.465+323.915+416.085+328.465" opacity="1" fill="#3a843b"/>
<path opacity="1" d="" fill="none"/>
</g>
<g opacity="1">
<path d="M410.442+231.523C408.852+220.276+402.42+216.829+393.73+206.971C393.217+206.389+384.573+198.897+383.38+200.322C382.262+201.658+386.342+213.106+386.458+215.549C386.855+223.916+383.432+230.513+380.144+237.98" opacity="1" fill="#396e3a"/>
<path fill="none" opacity="1" d=""/>
</g>
<g opacity="1">
<path fill="#458046" d="M350.294+345.413C327.921+358.346+320.043+358.544+311.153+359.561C300.472+360.784+277.223+358.211+269.598+355.916C260.531+353.187+251.046+346.439+254.497+346.349C270.133+345.938+280.611+347.541+299.732+345.248C322.199+342.553+326.398+337.213+340.024+331.818" opacity="1"/>
<path opacity="1" d="" fill="none"/>
</g>
<g opacity="1">
<path d="M199.062+245.584C209.668+255.262+228.005+265.141+242.947+276.369C256.97+286.906+280.182+302.018+293.581+305.266C311.581+309.63+294.61+320.166+302.192+308.059C305.389+302.954+292.572+300.611+288.654+296.036C284.517+291.205+277.273+286.412+272.671+282.022C266.942+276.557+260.708+271.639+254.517+266.703C244.609+258.805+232.36+255.076+220.625+251.019" fill="#4a9e4b" opacity="1"/>
<path d="" opacity="1" fill="none"/>
</g>
<g opacity="1">
<path d="M238.859+238.249C264.912+246.459+291.107+263.289+314.402+279.379C320.401+283.522+325.919+288.327+331.694+292.813C333.783+294.437+337.723+298.235+340.883+297.855C342.572+297.652+341.893+295.267+342.251+293.549C342.642+291.674+343.564+291.615+342.515+290.033C340.53+287.042+337.855+284.835+335.493+282.2C330.534+276.669+325.575+272.447+320.768+266.803C311.063+255.41+293.47+240.54+278.815+238.249C271.361+237.084+261.037+235.632+253.528+235.622" fill="#4a9e4b" opacity="1"/>
<path d="" fill="none" opacity="1"/>
</g>
<path stroke="#ffffff" stroke-linejoin="round" d="M505.907+350.386C524.562+353.154+541.95+346.753+555.294+341.016C568.637+335.279+579.691+328.301+588.84+320.961C597.448+314.056+604.43+308.053+610.161+301.908C615.892+295.762+620.373+289.474+623.978+281.995C625.882+278.045+623.999+274.426+619.333+271.754C614.667+269.082+607.218+267.357+597.991+267.195C591.153+267.074+583.723+266.834+575.766+267.779C567.81+268.723+559.326+270.854+550.382+275.474" opacity="1" stroke-linecap="round" stroke-width="2.76796" fill="none"/>
<path fill="none" d="M551.324+273.526C558.866+260.376+560.844+249.613+554.746+247.904C541.897+244.304+492.444+257.455+480.212+263.774" stroke="#ffffff" stroke-linejoin="round" opacity="1" stroke-linecap="round" stroke-width="2.76796"/>
<path stroke="#ffffff" d="M479.854+263.035C492.363+256.572+499.82+242.106+504.907+229.753C512.065+212.373+513.411+198.404+507.054+199.43C495.601+201.279+469.474+207.935+461.6+211.264C453.726+214.592+458.021+212.003+445.495+217.55C436.673+221.456+423.561+227.644+415.897+235.563" stroke-linejoin="round" opacity="1" stroke-linecap="round" fill="none" stroke-width="2.76796"/>
<path stroke-linecap="round" stroke="#ffffff" opacity="1" d="M414.593+232.725C418.903+241.631+405.204+218.243+399.184+210.467C394.351+204.225+387.143+199.073+382.904+196.321C379.792+194.3+379.928+193.43+375.444+195.097C369.874+197.167+362.445+200.967+354.985+207.965C346.078+216.321+343.548+217.044+340.897+222.521" stroke-linejoin="round" fill="none" stroke-width="2.76796"/>
<path opacity="1" stroke-linejoin="round" d="M339.157+223.631C330.256+208.823+303.406+186.444+285.585+188.145" fill="none" stroke="#ffffff" stroke-linecap="round" stroke-width="2.76796"/>
<path stroke-linejoin="round" d="M285.018+188.437C280.28+187.29+294.437+240.303+301.207+246.121" stroke-width="2.76796" opacity="1" stroke-linecap="round" stroke="#ffffff" fill="none"/>
<path stroke-linecap="round" d="M301.827+247.338C295.165+234.719+247.469+230.059+236.13+236.45" fill="none" opacity="1" stroke-width="2.76796" stroke="#ffffff" stroke-linejoin="round"/>
<path stroke-linecap="round" stroke-width="2.76796" fill="none" stroke-linejoin="round" d="M235.276+237.184C236.318+242.253+236.793+254.213+241.317+257.788" stroke="#ffffff" opacity="1"/>
<path stroke-width="2.76796" fill="none" stroke-linejoin="round" stroke="#ffffff" d="M240.528+257.46C236.416+253.919+224.824+249.705+215.93+247.292C199.084+242.722+185.371+241.271+175.288+245.428" opacity="1" stroke-linecap="round"/>
<path fill="none" stroke-width="2.76796" stroke-linejoin="round" d="M175.715+246.492C188.148+287.203+208.681+308.826+233.413+332.617" stroke-linecap="round" opacity="1" stroke="#ffffff"/>
<path stroke="#ffffff" opacity="1" stroke-linecap="round" stroke-linejoin="round" stroke-width="2.76796" d="M235.111+333.064C234.083+333.261+233.172+334.389+232.347+335.034" fill="none"/>
<path d="M232.291+335.456C242.207+342.491+248.269+348.3+257.69+353.011" stroke="#ffffff" stroke-width="2.76796" fill="none" stroke-linecap="round" stroke-linejoin="round" opacity="1"/>
<g opacity="1">
<path opacity="1" fill="#dab3be" d="M533.105+492.346C525.796+495.361+529.049+496.66+513.315+500.784C470.688+511.957+406.046+518.317+331.458+511.998C270.716+506.853+258.205+509.077+233.363+497.587C222.199+492.424+219.535+487.616+218.895+488.004C217.048+489.125+217.809+491.274+217.665+493.935C217.429+498.303+217.25+503.894+217.578+507.424C219.176+524.589+218.029+524.857+221.26+541.79C223.852+555.371+239.115+573.264+251.078+579.855C279.1+595.294+318.643+594.419+348.548+596.785C366.517+598.206+384.585+598.591+402.605+598.162C418.153+597.792+437.06+597.859+452.505+596.033C472.347+593.687+508.858+581.951+518.018+560.849C525.826+542.863+531.472+529.653+532.442+510.069" fill-opacity="0.747747"/>
<path opacity="1" d="" fill="none"/>
</g>
</g>
</g>
</svg>
